HIERARCHY
ROOT joint_Root
{
  OFFSET 0.0 0.0 0.0
  CHANNELS 6 Xposition Yposition Zposition Zrotation Xrotation Yrotation
  JOINT Hips
  {
    OFFSET 0.0 0.0 0.0
    CHANNELS 6 Xposition Yposition Zposition Zrotation Xrotation Yrotation
    JOINT Spine
    {
      OFFSET 2.924741268 0.0 0.0
      CHANNELS 6 Xposition Yposition Zposition Zrotation Xrotation Yrotation
      JOINT Chest
      {
        OFFSET 1.669928074 -0.075500324 0.0
        CHANNELS 6 Xposition Yposition Zposition Zrotation Xrotation Yrotation
        JOINT Neck
        {
          OFFSET 3.043993473 0.0 0.0
          CHANNELS 6 Xposition Yposition Zposition Zrotation Xrotation Yrotation
          JOINT Head
          {
            OFFSET 1.200088739 0.0 0.0
            CHANNELS 6 Xposition Yposition Zposition Zrotation Xrotation Yrotation
            End Site
            {
              OFFSET 0.0 0.0 0.0
            }
          }
        }
        JOINT Shoulder_L
        {
          OFFSET 2.415188074 -0.045112804 0.925688267
          CHANNELS 6 Xposition Yposition Zposition Zrotation Xrotation Yrotation
          JOINT UpperArm_L
          {
            OFFSET 0.994031489 0.0 0.0
            CHANNELS 6 Xposition Yposition Zposition Zrotation Xrotation Yrotation
            JOINT LowerArm_L
            {
              OFFSET 4.521874905 3.476e-06 0.0
              CHANNELS 6 Xposition Yposition Zposition Zrotation Xrotation Yrotation
              JOINT Hand_L
              {
                OFFSET 4.143264294 0.0 0.0
                CHANNELS 6 Xposition Yposition Zposition Zrotation Xrotation Yrotation
                End Site
                {
                  OFFSET 0.0 0.0 0.0
                }
              }
            }
          }
        }
        JOINT Shoulder_R
        {
          OFFSET 2.415243864 -0.045112804 -0.925688267
          CHANNELS 6 Xposition Yposition Zposition Zrotation Xrotation Yrotation
          JOINT UpperArm_R
          {
            OFFSET -0.994038939 0.0 0.0
            CHANNELS 6 Xposition Yposition Zposition Zrotation Xrotation Yrotation
            JOINT LowerArm_R
            {
              OFFSET -4.521930218 5.9886e-05 0.0
              CHANNELS 6 Xposition Yposition Zposition Zrotation Xrotation Yrotation
              JOINT Hand_R
              {
                OFFSET -4.143245697 -2.0089e-05 0.0
                CHANNELS 6 Xposition Yposition Zposition Zrotation Xrotation Yrotation
                End Site
                {
                  OFFSET 0.0 0.0 0.0
                }
              }
            }
          }
        }
      }
    }
    JOINT UpperLeg_L
    {
      OFFSET -0.40750888 -1.202453017 0.0
      CHANNELS 6 Xposition Yposition Zposition Zrotation Xrotation Yrotation
      JOINT LowerLeg_L
      {
        OFFSET 7.263872147 0.0 -2.301e-06
        CHANNELS 6 Xposition Yposition Zposition Zrotation Xrotation Yrotation
        JOINT Foot_L
        {
          OFFSET 7.617818356 0.0 -2.358e-06
          CHANNELS 6 Xposition Yposition Zposition Zrotation Xrotation Yrotation
          JOINT Toes_L
          {
            OFFSET 2.184732199 0.0 0.0
            CHANNELS 6 Xposition Yposition Zposition Zrotation Xrotation Yrotation
            End Site
            {
              OFFSET 0.0 0.0 0.0
            }
          }
        }
      }
    }
    JOINT UpperLeg_R
    {
      OFFSET -0.407514423 1.202453017 0.0
      CHANNELS 6 Xposition Yposition Zposition Zrotation Xrotation Yrotation
      JOINT LowerLeg_R
      {
        OFFSET -7.263872147 -0.00042406 -0.0074705
        CHANNELS 6 Xposition Yposition Zposition Zrotation Xrotation Yrotation
        JOINT Foot_R
        {
          OFFSET -7.617818356 0.0 0.0
          CHANNELS 6 Xposition Yposition Zposition Zrotation Xrotation Yrotation
          JOINT Toes_R
          {
            OFFSET -2.184732199 0.0 0.0
            CHANNELS 6 Xposition Yposition Zposition Zrotation Xrotation Yrotation
            End Site
            {
              OFFSET 0.0 0.0 0.0
            }
          }
        }
      }
    }
  }
}
MOTION
Frames: 8
Frame Time: 0.0333333
0.0 0.0 0.0 -0.0 0.0 -0.0 0.0 0.0 0.0 86.493896484 1.64286983 -1.133370042 2.924741268 0.0 0.0 126.771072388 87.532241821 -125.950042725 1.669928074 -0.075500324 0.0 -3.835000515 2.869560003 1.737900138 3.043993473 0.0 0.0 -6.662409782 -2.15087986 -1.628350139 1.200088739 0.0 0.0 4.676858902 -6.346199512 -0.482588947 2.415188074 -0.045112804 0.925688267 -90.382904053 1.660689116 -92.01260376 0.994031489 0.0 0.0 -69.120399475 -24.118099213 15.499599457 4.521874905 3.476e-06 0.0 1.743319869 6.741030216 -14.53579998 4.143264294 0.0 0.0 16.923099518 5.269059658 0.922119856 2.415243864 -0.045112804 -0.925688267 89.203102112 4.447573185 -94.831306458 -0.994038939 0.0 0.0 -67.34349823 -12.92069912 8.136320114 -4.521930218 5.9886e-05 0.0 2.517989874 7.153379917 -19.456102371 -4.143245697 -2.0089e-05 0.0 22.091999054 5.457770348 -4.920219898 -0.40750888 -1.202453017 0.0 -177.022003174 2.827670097 -23.73900032 7.263872147 0.0 -2.301e-06 -0.411242992 0.123295017 72.366897583 7.617818356 0.0 -2.358e-06 5.155869484 -8.636639595 -42.553901672 2.184732199 0.0 0.0 0.420073003 -0.506888032 -21.375101089 -0.407514423 1.202453017 0.0 -169.856994629 -0.139843881 166.865997314 -7.263872147 -0.00042406 -0.0074705 0.031839903 0.007707159 29.715295792 -7.617818356 0.0 0.0 3.255390406 -14.077400208 -68.436004639 -2.184732199 0.0 0.0 -0.058146309 0.0428477 -16.572900772 
0.0 0.0 0.0 -0.0 0.0 -0.0 0.0 0.0 0.0 87.868309021 1.375320315 -1.515240073 2.924741268 0.0 0.0 134.431869507 87.3254776 -134.11088562 1.669928074 -0.075500324 0.0 -3.960899353 3.709259748 0.770959914 3.043993473 0.0 0.0 -6.720710754 -2.187709808 -1.754190087 1.200088739 0.0 0.0 4.601499557 -6.902999401 -0.434879959 2.415188074 -0.045112804 0.925688267 -90.388900757 1.608129859 -91.405899048 0.994031489 0.0 0.0 -66.992202759 -25.218502045 18.462501526 4.521874905 3.476e-06 0.0 1.579650044 6.063559532 -14.631199837 4.143264294 0.0 0.0 16.66230011 5.279399872 0.641678929 2.415243864 -0.045112804 -0.925688267 89.349006653 3.843442678 -95.379699707 -0.994038939 0.0 0.0 -67.299499512 -13.010099411 5.990458012 -4.521930218 5.9886e-05 0.0 2.874130011 7.441000462 -21.197496414 -4.143245697 -2.0089e-05 0.0 22.089696884 5.452960014 -4.74557972 -0.40750888 -1.202453017 0.0 -178.865005493 4.132369518 -28.658401489 7.263872147 0.0 -2.301e-06 -0.439043969 0.154283017 69.872596741 7.617818356 0.0 -2.358e-06 7.544590473 -12.659000397 -46.065502167 2.184732199 0.0 0.0 0.372123033 -0.444488049 -20.802000046 -0.407514423 1.202453017 0.0 -171.507003784 1.383270144 170.152999878 -7.263872147 -0.00042406 -0.0074705 0.028843496 0.00578068 26.981397629 -7.617818356 0.0 0.0 3.267640114 -12.402198792 -69.423400879 -2.184732199 0.0 0.0 -0.065374695 0.048233695 -16.572902679 
0.0 0.0 0.0 -0.0 0.0 -0.0 0.0 0.0 0.0 88.92640686 1.192190051 -2.114600182 2.924741268 0.0 0.0 139.735977173 87.099365234 -139.803939819 1.669928074 -0.075500324 0.0 -4.020130634 4.430650234 0.019235468 3.043993473 0.0 0.0 -7.147778988 -2.208409786 -1.765409589 1.200088739 0.0 0.0 4.323200226 -7.415009022 -0.630094945 2.415188074 -0.045112804 0.925688267 -90.395690918 1.587062597 -90.999893188 0.994031489 0.0 0.0 -64.593605042 -26.600101471 21.367795944 4.521874905 3.476e-06 0.0 1.600279927 5.976200104 -15.019900322 4.143264294 0.0 0.0 16.443597794 5.278539658 0.666224122 2.415243864 -0.045112804 -0.925688267 89.4845047 3.195180893 -95.830604553 -0.994038939 0.0 0.0 -67.321098328 -13.737799644 3.743759394 -4.521930218 5.9886e-05 0.0 3.039630175 7.207640648 -22.946804047 -4.143245697 -2.0089e-05 0.0 22.027603149 5.446130753 -4.501649857 -0.40750888 -1.202453017 0.0 -179.848007202 5.289340019 -32.392299652 7.263872147 0.0 -2.301e-06 -0.372637957 0.176368967 63.556304932 7.617818356 0.0 -2.358e-06 7.930170536 -14.419400215 -48.880004883 2.184732199 0.0 0.0 0.387527972 -0.464409977 -20.985399246 -0.407514423 1.202453017 0.0 -172.947998047 3.863420248 173.309997559 -7.263872147 -0.00042406 -0.0074705 0.022505401 0.00716984 23.761001587 -7.617818356 0.0 0.0 3.497700214 -9.909230232 -70.073097229 -2.184732199 0.0 0.0 -0.093662411 0.069203392 -16.572301865 
0.0 0.0 0.0 -0.0 0.0 -0.0 0.0 0.0 0.0 89.466598511 0.969657004 -2.821540117 2.924741268 0.0 0.0 143.110900879 86.919425964 -143.426925659 1.669928074 -0.075500324 0.0 -4.061850548 4.95664978 -0.456372023 3.043993473 0.0 0.0 -7.686729908 -2.216929913 -1.744809747 1.200088739 0.0 0.0 3.724010468 -7.658950806 -0.624572992 2.415188074 -0.045112804 0.925688267 -90.358001709 1.396056294 -90.617897034 0.994031489 0.0 0.0 -62.136493683 -28.028999329 24.190000534 4.521874905 3.476e-06 0.0 1.589180112 5.77917099 -15.403601646 4.143264294 0.0 0.0 16.836900711 5.273790359 0.795468926 2.415243864 -0.045112804 -0.925688267 89.586997986 2.678607941 -96.231407166 -0.994038939 0.0 0.0 -67.444297791 -14.484700203 1.30360043 -4.521930218 5.9886e-05 0.0 3.028740168 6.655000687 -24.54709816 -4.143245697 -2.0089e-05 0.0 22.06760025 5.43885994 -4.245669842 -0.40750888 -1.202453017 0.0 -179.994003296 5.711530685 -34.389896393 7.263872147 0.0 -2.301e-06 -0.25880301 0.18089202 53.320304871 7.617818356 0.0 -2.358e-06 7.731959343 -13.908398628 -50.643398285 2.184732199 0.0 0.0 0.386655003 -0.463265896 -20.974897385 -0.407514423 1.202453017 0.0 -173.695999146 4.866920471 176.320999146 -7.263872147 -0.00042406 -0.0074705 0.00083968 0.051610496 20.448497772 -7.617818356 0.0 0.0 3.437239885 -9.034369469 -70.520889282 -2.184732199 0.0 0.0 -0.053334203 0.039289899 -16.573099136 
0.0 0.0 0.0 -0.0 0.0 -0.0 0.0 0.0 0.0 89.335197449 0.531720996 -3.365250111 2.924741268 0.0 0.0 145.335006714 86.699630737 -145.660964966 1.669928074 -0.075500324 0.0 -4.005099773 5.459010601 -0.463165045 3.043993473 0.0 0.0 -8.275190353 -2.063349962 -1.69536972 1.200088739 0.0 0.0 3.003489733 -7.795398235 -0.571980953 2.415188074 -0.045112804 0.925688267 -90.348999023 1.323238015 -90.227409363 0.994031489 0.0 0.0 -59.777603149 -28.770803452 26.717306137 4.521874905 3.476e-06 0.0 1.576770067 5.717930317 -15.444502831 4.143264294 0.0 0.0 17.408100128 5.283459663 0.532843947 2.415243864 -0.045112804 -0.925688267 89.635696411 2.450437069 -96.542098999 -0.994038939 0.0 0.0 -67.318084717 -14.899899483 -1.089810014 -4.521930218 5.9886e-05 0.0 3.147329807 6.538649559 -25.782398224 -4.143245697 -2.0089e-05 0.0 22.866697311 5.44342947 -4.403309822 -0.40750888 -1.202453017 0.0 -179.643997192 4.711820126 -33.769405365 7.263872147 0.0 -2.301e-06 -0.140120998 0.159336984 38.664001465 7.617818356 0.0 -2.358e-06 7.000068665 -11.304299355 -50.786090851 2.184732199 0.0 0.0 0.389251053 -0.466613024 -21.005701065 -0.407514423 1.202453017 0.0 -173.68800354 5.261580467 179.682998657 -7.263872147 -0.00042406 -0.0074705 -0.020717699 0.117143989 16.771799088 -7.617818356 0.0 0.0 3.383650303 -8.605430603 -70.756408691 -2.184732199 0.0 0.0 -0.00120696 0.000892571 -16.573898315 
0.0 0.0 0.0 -0.0 0.0 -0.0 0.0 0.0 0.0 88.778007507 -0.138567805 -3.628269911 2.924741268 0.0 0.0 146.939056396 86.482139587 -147.1040802 1.669928074 -0.075500324 0.0 -3.929650307 5.909699917 -0.127976015 3.043993473 0.0 0.0 -8.639129639 -1.779490352 -1.652880073 1.200088739 0.0 0.0 2.378230095 -7.742558956 -0.579868078 2.415188074 -0.045112804 0.925688267 -90.338508606 1.24500072 -89.788406372 0.994031489 0.0 0.0 -57.52110672 -29.320705414 29.09180069 4.521874905 3.476e-06 0.0 1.504909992 5.64180994 -14.961097717 4.143264294 0.0 0.0 18.103099823 5.296669483 0.166084886 2.415243864 -0.045112804 -0.925688267 89.667404175 2.327029467 -96.864212036 -0.994038939 0.0 0.0 -67.127090454 -14.6831007 -3.175298929 -4.521930218 5.9886e-05 0.0 3.455960751 6.88602066 -26.740602493 -4.143245697 -2.0089e-05 0.0 24.49249649 5.441079617 -4.325949669 -0.40750888 -1.202453017 0.0 -179.481994629 2.370460272 -29.807001114 7.263872147 0.0 -2.301e-06 -0.044900503 0.120118991 19.453399658 7.617818356 0.0 -2.358e-06 5.813570976 -5.596630573 -49.940101624 2.184732199 0.0 0.0 0.39784193 -0.477779001 -21.108299255 -0.407514423 1.202453017 0.0 -173.020004272 5.252951145 -176.89100647 -7.263872147 -0.00042406 -0.0074705 0.029780196 -0.076634295 13.828199387 -7.617818356 0.0 0.0 5.86850071 -8.713370323 -70.937400818 -2.184732199 0.0 0.0 0.092384398 -0.096841097 -17.319099426 
0.0 0.0 0.0 -0.0 0.0 -0.0 0.0 0.0 0.0 88.050994873 -1.100519657 -3.701150179 2.924741268 0.0 0.0 149.112030029 86.273117065 -149.036071777 1.669928074 -0.075500324 0.0 -3.956209898 6.38462019 0.37333104 3.043993473 0.0 0.0 -8.706161499 -1.435880065 -1.598020077 1.200088739 0.0 0.0 1.966550231 -7.561169147 -0.675893128 2.415188074 -0.045112804 0.925688267 -90.293800354 1.052371025 -89.40259552 0.994031489 0.0 0.0 -55.468093872 -29.874595642 31.507301331 4.521874905 3.476e-06 0.0 1.453350186 5.696919918 -14.337301254 4.143264294 0.0 0.0 18.761600494 5.294720173 0.219938904 2.415243864 -0.045112804 -0.925688267 89.709915161 2.115947485 -97.190711975 -0.994038939 0.0 0.0 -67.297294617 -14.716298103 -4.750618935 -4.521930218 5.9886e-05 0.0 4.004909515 7.719378948 -27.536300659 -4.143245697 -2.0089e-05 0.0 25.345298767 5.433209896 -4.050879955 -0.40750888 -1.202453017 0.0 -179.20199585 0.196790025 -27.653999329 7.263872147 0.0 -2.301e-06 -0.004738851 0.022417203 6.159940243 7.617818356 0.0 -2.358e-06 1.355049729 -0.08466354 -50.928394318 2.184732199 0.0 0.0 0.396269023 -0.475746006 -21.089700699 -0.407514423 1.202453017 0.0 -172.794998169 5.009839058 -175.988006592 -7.263872147 -0.00042406 -0.0074705 0.055517893 -0.134264991 16.866796494 -7.617818356 0.0 0.0 5.076059818 -7.776518822 -72.826301575 -2.184732199 0.0 0.0 0.123576999 -0.43422398 -18.859201431 
0.0 0.0 0.0 -0.0 0.0 -0.0 0.0 0.0 0.0 87.60609436 -2.076709986 -3.855470181 2.924741268 0.0 0.0 150.952011108 86.193473816 -150.696014404 1.669928074 -0.075500324 0.0 -4.098259926 6.624380589 0.750671923 3.043993473 0.0 0.0 -8.687818527 -1.053230047 -1.556010008 1.200088739 0.0 0.0 1.572139978 -7.182049751 -0.856586039 2.415188074 -0.045112804 0.925688267 -90.308303833 1.080021024 -89.071403503 0.994031489 0.0 0.0 -53.81470108 -30.058000565 33.611595154 4.521874905 3.476e-06 0.0 1.441800117 6.09758997 -13.330201149 4.143264294 0.0 0.0 20.025800705 5.303320408 -0.019094368 2.415243864 -0.045112804 -0.925688267 89.731010437 2.015709162 -97.398002625 -0.994038939 0.0 0.0 -67.551307678 -14.28619957 -6.056280136 -4.521930218 5.9886e-05 0.0 4.069709778 7.799799442 -27.673099518 -4.143245697 -2.0089e-05 0.0 26.113397598 5.434440613 -4.091229916 -0.40750888 -1.202453017 0.0 -178.695007324 0.112862997 -26.988500595 7.263872147 0.0 -2.301e-06 5.9127e-05 -0.00330433 0.0158788 7.617818356 0.0 -2.358e-06 -0.017302867 1.9894104 -54.720199585 2.184732199 0.0 0.0 0.383259922 -0.458848953 -20.934299469 -0.407514423 1.202453017 0.0 -173.315994263 5.482940197 -175.539993286 -7.263872147 -0.00042406 -0.0074705 0.07977809 -0.155960977 20.752498627 -7.617818356 0.0 0.0 4.343540192 -6.016590118 -73.092903137 -2.184732199 0.0 0.0 -0.484259039 -1.712720037 -22.659498215 
